<svg width="220" height="110" viewBox="0 0 220 110" fill="none" xmlns="http://www.w3.org/2000/svg" role="img" aria-labelledby="title desc">
  <title id="title">Aylagraphy Monogramm</title>
  <desc id="desc">Elegantes AG Monogramm mit feiner Serifenschrift</desc>
  <rect width="220" height="110" fill="none" />
  <path d="M32 82C52 44 70 24 88 24C104 24 110 42 101 58C92 74 64 88 40 88C30 88 26 82 32 82Z" stroke="#8FA7A0" stroke-width="3.5" fill="none" stroke-linecap="round"/>
  <path d="M112 82C132 44 150 24 168 24C184 24 190 42 181 58C172 74 144 88 120 88C110 88 106 82 112 82Z" stroke="#8FA7A0" stroke-width="3.5" fill="none" stroke-linecap="round"/>
  <path d="M78 70C90 50 100 42 110 42C120 42 122 54 114 64C106 74 88 82 76 82C68 82 66 76 70 72" stroke="#39544D" stroke-width="3.8" fill="none" stroke-linecap="round"/>
  <text x="110" y="104" text-anchor="middle" fill="#39544D" font-family="'Playfair Display', Georgia, serif" font-size="13" letter-spacing="3">EST. 2023 · CAPTURING MOMENTS</text>
</svg>
